<svg width="428" height="926" viewBox="0 0 428 926" fill="none" xmlns="http://www.w3.org/2000/svg">
<rect width="428" height="926" rx="32" fill="#121212"/>
<path d="M364.719 337.594C364.719 337.387 364.801 337.188 364.948 337.041C365.094 336.895 365.293 336.812 365.5 336.812C365.707 336.812 365.906 336.895 366.052 337.041C366.199 337.188 366.281 337.387 366.281 337.594V340.719H369.406C369.613 340.719 369.812 340.801 369.959 340.948C370.105 341.094 370.188 341.293 370.188 341.5C370.188 341.707 370.105 341.906 369.959 342.052C369.812 342.199 369.613 342.281 369.406 342.281H366.281V345.406C366.281 345.613 366.199 345.812 366.052 345.959C365.906 346.105 365.707 346.188 365.5 346.188C365.293 346.188 365.094 346.105 364.948 345.959C364.801 345.812 364.719 345.613 364.719 345.406V342.281H361.594C361.387 342.281 361.188 342.199 361.041 342.052C360.895 341.906 360.812 341.707 360.812 341.5C360.812 341.293 360.895 341.094 361.041 340.948C361.188 340.801 361.387 340.719 361.594 340.719H364.719V337.594ZM376.438 341.5C376.438 347.541 371.541 352.438 365.5 352.438C359.459 352.438 354.562 347.541 354.562 341.5C354.562 335.459 359.459 330.562 365.5 330.562C371.541 330.562 376.438 335.459 376.438 341.5ZM374.875 341.5C374.875 336.323 370.677 332.125 365.5 332.125C360.323 332.125 356.125 336.323 356.125 341.5C356.125 346.677 360.323 350.875 365.5 350.875C370.677 350.875 374.875 346.677 374.875 341.5Z" fill="white"/>
<path d="M36.2827 17.9418C36.7479 17.9418 37.1758 18.0465 37.5664 18.256C37.9606 18.462 38.3033 18.7745 38.5945 19.1935C38.8892 19.609 39.1165 20.1346 39.2763 20.7702C39.4396 21.4059 39.5213 22.1534 39.5213 23.0128C39.5213 23.7479 39.4698 24.4776 39.3668 25.2021C39.2638 25.9265 39.0881 26.587 38.8395 27.1836C38.5909 27.7802 38.25 28.2578 37.8168 28.6165C37.3835 28.9716 36.8366 29.1491 36.1761 29.1491C35.6364 29.1491 35.1658 29.0266 34.7646 28.7816C34.3633 28.533 34.0455 28.1921 33.8111 27.7589C33.5767 27.3221 33.4418 26.8196 33.4062 26.2514H33.7472C33.8004 26.9972 34.0401 27.6097 34.4663 28.0891C34.8924 28.5685 35.4624 28.8082 36.1761 28.8082C37.1669 28.8082 37.9144 28.2969 38.4187 27.2741C38.9265 26.2514 39.1804 24.7812 39.1804 22.8636H39.1378C39.0241 23.2259 38.8271 23.549 38.5465 23.8331C38.266 24.1136 37.9339 24.3356 37.5504 24.4989C37.1669 24.6587 36.7656 24.7386 36.3466 24.7386C35.7713 24.7386 35.2457 24.5895 34.7699 24.2912C34.2976 23.9929 33.9194 23.5863 33.6353 23.0714C33.3548 22.5565 33.2145 21.9759 33.2145 21.3295C33.2145 20.7259 33.3423 20.1665 33.598 19.6516C33.8572 19.1367 34.2159 18.723 34.674 18.4105C35.1357 18.098 35.6719 17.9418 36.2827 17.9418ZM36.2827 18.2827C35.7571 18.2827 35.2884 18.4194 34.8764 18.6928C34.468 18.9663 34.1449 19.3338 33.907 19.7955C33.6726 20.2571 33.5554 20.7685 33.5554 21.3295C33.5554 21.9048 33.6797 22.4251 33.9283 22.8903C34.1804 23.3519 34.5178 23.7195 34.9403 23.9929C35.3665 24.2628 35.8423 24.3977 36.3679 24.3977C36.7834 24.3977 37.1687 24.3125 37.5238 24.142C37.8789 23.968 38.1808 23.7301 38.4293 23.4283C38.6815 23.1264 38.8608 22.7837 38.9673 22.4002C39.0774 22.0131 39.0916 21.6065 39.0099 21.1804C38.8892 20.5412 38.6992 20.0067 38.44 19.5771C38.1843 19.1474 37.8718 18.8242 37.5025 18.6076C37.1367 18.391 36.7301 18.2827 36.2827 18.2827ZM42.3068 26.88C42.2002 26.88 42.1097 26.8427 42.0351 26.7681C41.9605 26.6935 41.9233 26.603 41.9233 26.4964C41.9233 26.3899 41.9605 26.2994 42.0351 26.2248C42.1097 26.1502 42.2002 26.1129 42.3068 26.1129C42.4133 26.1129 42.5039 26.1502 42.5784 26.2248C42.653 26.2994 42.6903 26.3899 42.6903 26.4964C42.6903 26.5675 42.6725 26.6332 42.637 26.6935C42.6051 26.7504 42.5589 26.7965 42.4985 26.832C42.4417 26.864 42.3778 26.88 42.3068 26.88ZM42.3068 21.3189C42.2002 21.3189 42.1097 21.2816 42.0351 21.207C41.9605 21.1325 41.9233 21.0419 41.9233 20.9354C41.9233 20.8288 41.9605 20.7383 42.0351 20.6637C42.1097 20.5891 42.2002 20.5518 42.3068 20.5518C42.4133 20.5518 42.5039 20.5891 42.5784 20.6637C42.653 20.7383 42.6903 20.8288 42.6903 20.9354C42.6903 21.0064 42.6725 21.0721 42.637 21.1325C42.6051 21.1893 42.5589 21.2354 42.4985 21.271C42.4417 21.3029 42.3778 21.3189 42.3068 21.3189ZM44.9924 26.4432V26.1875L49.9995 18.0909H50.2125V18.794H49.9569L45.4824 26.0597V26.1023H51.704V26.4432H44.9924ZM49.9995 29V26.3366V26.2301V18.0909H50.3404V29H49.9995ZM56.1527 18.0909V29H55.8118V18.4531H55.7479L53.4042 20.0085V19.6037L55.684 18.0909H56.1527Z" fill="white"/>
<path fill-rule="evenodd" clip-rule="evenodd" d="M365 18H364C363.448 18 363 18.4477 363 19V27.6667C363 28.219 363.448 28.6667 364 28.6667H365C365.552 28.6667 366 28.219 366 27.6667V19C366 18.4477 365.552 18 365 18ZM359.333 20.3333H360.333C360.886 20.3333 361.333 20.781 361.333 21.3333V27.6667C361.333 28.219 360.886 28.6667 360.333 28.6667H359.333C358.781 28.6667 358.333 28.219 358.333 27.6667V21.3333C358.333 20.781 358.781 20.3333 359.333 20.3333ZM355.667 22.6667H354.667C354.114 22.6667 353.667 23.1144 353.667 23.6667V27.6667C353.667 28.219 354.114 28.6667 354.667 28.6667H355.667C356.219 28.6667 356.667 28.219 356.667 27.6667V23.6667C356.667 23.1144 356.219 22.6667 355.667 22.6667ZM351 24.6667H350C349.448 24.6667 349 25.1144 349 25.6667V27.6667C349 28.219 349.448 28.6667 350 28.6667H351C351.552 28.6667 352 28.219 352 27.6667V25.6667C352 25.1144 351.552 24.6667 351 24.6667Z" fill="white"/>
<path fill-rule="evenodd" clip-rule="evenodd" d="M383.94 22.6557C382.334 21.1289 380.202 20.2774 377.987 20.2773C375.77 20.2773 373.639 21.1288 372.033 22.6557C371.912 22.7737 371.719 22.7722 371.6 22.6523L370.443 21.4857C370.383 21.4249 370.349 21.3426 370.35 21.257C370.351 21.1715 370.385 21.0896 370.446 21.0297C374.661 16.9901 381.311 16.9901 385.526 21.0297C385.587 21.0897 385.622 21.1715 385.622 21.2571C385.623 21.3427 385.589 21.4249 385.529 21.4857L384.373 22.6523C384.254 22.772 384.061 22.7735 383.94 22.6557ZM377.987 24.073C379.204 24.0729 380.378 24.5254 381.281 25.3427C381.403 25.4586 381.595 25.4561 381.714 25.337L382.869 24.1703C382.929 24.1091 382.963 24.0261 382.962 23.9398C382.961 23.8536 382.926 23.7713 382.864 23.7113C380.116 21.1549 375.86 21.1549 373.112 23.7113C373.05 23.7713 373.014 23.8536 373.013 23.9399C373.013 24.0262 373.046 24.1092 373.107 24.1703L374.262 25.337C374.381 25.4561 374.573 25.4586 374.695 25.3427C375.597 24.526 376.77 24.0735 377.987 24.073ZM380.206 26.8573C380.267 26.7967 380.301 26.7133 380.3 26.6268C380.298 26.5403 380.26 26.4584 380.196 26.4003C378.921 25.3214 377.052 25.3214 375.777 26.4003C375.713 26.4583 375.675 26.5402 375.673 26.6267C375.672 26.7132 375.706 26.7967 375.767 26.8573L377.765 28.873C377.823 28.9322 377.903 28.9656 377.987 28.9656C378.07 28.9656 378.15 28.9322 378.208 28.873L380.206 26.8573Z" fill="white"/>
<g clip-path="url(#clip0_144_940)">
<path opacity="0.35" d="M389.5 19.6667C389.5 18.47 390.47 17.5 391.667 17.5H408.333C409.53 17.5 410.5 18.47 410.5 19.6667V25.6667C410.5 26.8633 409.53 27.8333 408.333 27.8333H391.667C390.47 27.8333 389.5 26.8633 389.5 25.6667V19.6667Z" stroke="white"/>
<path opacity="0.4" d="M412 20.6667V24.6667C412.805 24.3279 413.328 23.5398 413.328 22.6667C413.328 21.7936 412.805 21.0055 412 20.6667Z" fill="white"/>
<path d="M391 20.3333C391 19.597 391.597 19 392.333 19H407.667C408.403 19 409 19.597 409 20.3333V25C409 25.7364 408.403 26.3333 407.667 26.3333H392.333C391.597 26.3333 391 25.7364 391 25V20.3333Z" fill="white"/>
</g>
<path d="M146.948 268.091H149.793L152.797 275.42H152.925L155.929 268.091H158.773V279H156.536V271.9H156.446L153.623 278.947H152.099L149.276 271.873H149.185V279H146.948V268.091ZM162.964 279.154C162.442 279.154 161.977 279.064 161.569 278.883C161.16 278.698 160.837 278.426 160.599 278.068C160.365 277.706 160.248 277.255 160.248 276.715C160.248 276.26 160.331 275.879 160.498 275.57C160.665 275.261 160.892 275.012 161.18 274.824C161.467 274.636 161.794 274.494 162.16 274.398C162.529 274.302 162.916 274.234 163.321 274.195C163.797 274.146 164.18 274.099 164.472 274.057C164.763 274.011 164.974 273.943 165.106 273.854C165.237 273.766 165.303 273.634 165.303 273.46V273.428C165.303 273.091 165.196 272.83 164.983 272.645C164.774 272.461 164.475 272.368 164.088 272.368C163.68 272.368 163.355 272.459 163.113 272.64C162.872 272.817 162.712 273.041 162.634 273.311L160.535 273.141C160.642 272.643 160.851 272.214 161.164 271.852C161.476 271.486 161.879 271.205 162.373 271.01C162.87 270.811 163.445 270.712 164.099 270.712C164.553 270.712 164.988 270.765 165.404 270.871C165.823 270.978 166.194 271.143 166.517 271.367C166.844 271.591 167.101 271.878 167.29 272.23C167.478 272.578 167.572 272.995 167.572 273.482V279H165.42V277.865H165.356C165.225 278.121 165.049 278.347 164.829 278.542C164.608 278.734 164.344 278.885 164.035 278.995C163.726 279.101 163.369 279.154 162.964 279.154ZM163.614 277.588C163.948 277.588 164.243 277.523 164.498 277.391C164.754 277.256 164.955 277.075 165.1 276.848C165.246 276.621 165.319 276.363 165.319 276.076V275.207C165.248 275.254 165.15 275.296 165.026 275.335C164.905 275.371 164.768 275.404 164.616 275.436C164.463 275.465 164.31 275.491 164.157 275.516C164.005 275.538 163.866 275.557 163.742 275.575C163.476 275.614 163.243 275.676 163.044 275.761C162.845 275.847 162.691 275.962 162.581 276.108C162.471 276.25 162.416 276.427 162.416 276.64C162.416 276.949 162.527 277.185 162.751 277.349C162.978 277.509 163.266 277.588 163.614 277.588ZM171.601 274.27V279H169.332V270.818H171.495V272.262H171.591C171.772 271.786 172.076 271.409 172.502 271.132C172.928 270.852 173.445 270.712 174.052 270.712C174.62 270.712 175.115 270.836 175.538 271.085C175.96 271.333 176.289 271.688 176.523 272.15C176.758 272.608 176.875 273.155 176.875 273.79V279H174.606V274.195C174.609 273.695 174.481 273.304 174.222 273.023C173.963 272.739 173.606 272.597 173.152 272.597C172.846 272.597 172.576 272.663 172.342 272.794C172.111 272.926 171.93 273.118 171.799 273.37C171.671 273.618 171.605 273.918 171.601 274.27ZM183.91 275.516V270.818H186.179V279H184.001V277.514H183.915C183.731 277.993 183.424 278.379 182.994 278.67C182.568 278.961 182.048 279.107 181.433 279.107C180.886 279.107 180.405 278.982 179.99 278.734C179.574 278.485 179.249 278.132 179.015 277.674C178.784 277.216 178.667 276.667 178.663 276.028V270.818H180.933V275.623C180.936 276.106 181.066 276.488 181.321 276.768C181.577 277.049 181.92 277.189 182.349 277.189C182.623 277.189 182.879 277.127 183.116 277.002C183.354 276.875 183.546 276.686 183.692 276.438C183.841 276.189 183.914 275.882 183.91 275.516ZM190.328 279.154C189.805 279.154 189.34 279.064 188.932 278.883C188.524 278.698 188.2 278.426 187.962 278.068C187.728 277.706 187.611 277.255 187.611 276.715C187.611 276.26 187.694 275.879 187.861 275.57C188.028 275.261 188.255 275.012 188.543 274.824C188.831 274.636 189.157 274.494 189.523 274.398C189.892 274.302 190.28 274.234 190.684 274.195C191.16 274.146 191.544 274.099 191.835 274.057C192.126 274.011 192.337 273.943 192.469 273.854C192.6 273.766 192.666 273.634 192.666 273.46V273.428C192.666 273.091 192.559 272.83 192.346 272.645C192.137 272.461 191.839 272.368 191.451 272.368C191.043 272.368 190.718 272.459 190.477 272.64C190.235 272.817 190.075 273.041 189.997 273.311L187.899 273.141C188.005 272.643 188.215 272.214 188.527 271.852C188.84 271.486 189.243 271.205 189.736 271.01C190.233 270.811 190.809 270.712 191.462 270.712C191.917 270.712 192.352 270.765 192.767 270.871C193.186 270.978 193.557 271.143 193.88 271.367C194.207 271.591 194.465 271.878 194.653 272.23C194.841 272.578 194.935 272.995 194.935 273.482V279H192.783V277.865H192.719C192.588 278.121 192.412 278.347 192.192 278.542C191.972 278.734 191.707 278.885 191.398 278.995C191.089 279.101 190.732 279.154 190.328 279.154ZM190.977 277.588C191.311 277.588 191.606 277.523 191.862 277.391C192.117 277.256 192.318 277.075 192.464 276.848C192.609 276.621 192.682 276.363 192.682 276.076V275.207C192.611 275.254 192.513 275.296 192.389 275.335C192.268 275.371 192.131 275.404 191.979 275.436C191.826 275.465 191.673 275.491 191.521 275.516C191.368 275.538 191.229 275.557 191.105 275.575C190.839 275.614 190.606 275.676 190.407 275.761C190.209 275.847 190.054 275.962 189.944 276.108C189.834 276.25 189.779 276.427 189.779 276.64C189.779 276.949 189.891 277.185 190.114 277.349C190.342 277.509 190.629 277.588 190.977 277.588ZM198.965 268.091V279H196.696V268.091H198.965Z" fill="#838A8F"/>
<path d="M244.593 280H241.792L246.06 267.636H249.428L253.69 280H250.889L247.792 270.462H247.696L244.593 280ZM244.418 275.14H251.034V277.181H244.418V275.14ZM261.077 276.052V270.727H263.648V280H261.179V278.316H261.083C260.873 278.859 260.525 279.296 260.038 279.626C259.555 279.956 258.966 280.121 258.269 280.121C257.65 280.121 257.104 279.98 256.633 279.698C256.163 279.416 255.794 279.016 255.529 278.497C255.267 277.978 255.134 277.356 255.13 276.631V270.727H257.702V276.173C257.706 276.72 257.853 277.153 258.143 277.471C258.432 277.788 258.821 277.947 259.308 277.947C259.618 277.947 259.908 277.877 260.177 277.736C260.447 277.591 260.664 277.378 260.829 277.096C260.998 276.815 261.081 276.466 261.077 276.052ZM270.638 270.727V272.659H265.053V270.727H270.638ZM266.321 268.506H268.893V277.151C268.893 277.388 268.929 277.573 269.002 277.706C269.074 277.835 269.175 277.925 269.303 277.978C269.436 278.03 269.589 278.056 269.762 278.056C269.883 278.056 270.004 278.046 270.125 278.026C270.245 278.002 270.338 277.984 270.402 277.972L270.807 279.885C270.678 279.926 270.497 279.972 270.263 280.024C270.03 280.08 269.746 280.115 269.412 280.127C268.792 280.151 268.249 280.068 267.782 279.879C267.319 279.69 266.959 279.396 266.702 278.998C266.444 278.599 266.317 278.096 266.321 277.489V268.506ZM276.403 280.181C275.465 280.181 274.654 279.982 273.97 279.583C273.29 279.181 272.765 278.622 272.394 277.905C272.024 277.185 271.839 276.35 271.839 275.4C271.839 274.442 272.024 273.605 272.394 272.888C272.765 272.168 273.29 271.609 273.97 271.21C274.654 270.808 275.465 270.607 276.403 270.607C277.341 270.607 278.15 270.808 278.83 271.21C279.514 271.609 280.041 272.168 280.411 272.888C280.782 273.605 280.967 274.442 280.967 275.4C280.967 276.35 280.782 277.185 280.411 277.905C280.041 278.622 279.514 279.181 278.83 279.583C278.15 279.982 277.341 280.181 276.403 280.181ZM276.415 278.189C276.842 278.189 277.198 278.068 277.484 277.827C277.769 277.581 277.985 277.247 278.129 276.825C278.278 276.402 278.353 275.921 278.353 275.382C278.353 274.842 278.278 274.362 278.129 273.939C277.985 273.516 277.769 273.182 277.484 272.937C277.198 272.691 276.842 272.569 276.415 272.569C275.984 272.569 275.622 272.691 275.328 272.937C275.039 273.182 274.819 273.516 274.67 273.939C274.525 274.362 274.453 274.842 274.453 275.382C274.453 275.921 274.525 276.402 274.67 276.825C274.819 277.247 275.039 277.581 275.328 277.827C275.622 278.068 275.984 278.189 276.415 278.189Z" fill="white"/>
<circle r="3.5" transform="matrix(1 0 0 -1 260.5 293.5)" fill="white"/>
<rect x="48.5" y="363.5" width="157" height="142" rx="17.5" fill="url(#paint0_linear_144_940)" stroke="white" stroke-width="3"/>
<rect x="224" y="365" width="154" height="139" rx="16" fill="url(#paint1_linear_144_940)"/>
<rect x="50" y="521" width="154" height="139" rx="16" fill="url(#paint2_linear_144_940)"/>
<rect x="224" y="521" width="154" height="139" rx="16" fill="url(#paint3_linear_144_940)"/>
<path d="M51.3906 348V332H57.7031C58.9167 332 59.9505 332.232 60.8047 332.695C61.6589 333.154 62.3099 333.792 62.7578 334.609C63.2109 335.422 63.4375 336.359 63.4375 337.422C63.4375 338.484 63.2083 339.422 62.75 340.234C62.2917 341.047 61.6276 341.68 60.7578 342.133C59.8932 342.586 58.8464 342.812 57.6172 342.812H53.5938V340.102H57.0703C57.7214 340.102 58.2578 339.99 58.6797 339.766C59.1068 339.536 59.4245 339.221 59.6328 338.82C59.8464 338.414 59.9531 337.948 59.9531 337.422C59.9531 336.891 59.8464 336.427 59.6328 336.031C59.4245 335.63 59.1068 335.32 58.6797 335.102C58.2526 334.878 57.7109 334.766 57.0547 334.766H54.7734V348H51.3906ZM65.5723 348V336H68.7988V338.094H68.9238C69.1426 337.349 69.5098 336.786 70.0254 336.406C70.541 336.021 71.1348 335.828 71.8066 335.828C71.9733 335.828 72.153 335.839 72.3457 335.859C72.5384 335.88 72.7077 335.909 72.8535 335.945V338.898C72.6973 338.852 72.4811 338.81 72.2051 338.773C71.929 338.737 71.6764 338.719 71.4473 338.719C70.9577 338.719 70.5202 338.826 70.1348 339.039C69.7546 339.247 69.4525 339.539 69.2285 339.914C69.0098 340.289 68.9004 340.721 68.9004 341.211V348H65.5723ZM79.4844 348.234C78.25 348.234 77.1875 347.984 76.2969 347.484C75.4115 346.979 74.7292 346.266 74.25 345.344C73.7708 344.417 73.5313 343.32 73.5313 342.055C73.5313 340.82 73.7708 339.737 74.25 338.805C74.7292 337.872 75.4036 337.146 76.2734 336.625C77.1484 336.104 78.1745 335.844 79.3516 335.844C80.1432 335.844 80.8802 335.971 81.5625 336.227C82.25 336.477 82.849 336.854 83.3594 337.359C83.875 337.865 84.276 338.5 84.5625 339.266C84.849 340.026 84.9922 340.917 84.9922 341.937V342.852H74.8594V340.789H81.8594C81.8594 340.31 81.7552 339.885 81.5469 339.516C81.3385 339.146 81.0495 338.857 80.6797 338.648C80.3151 338.435 79.8906 338.328 79.4063 338.328C78.901 338.328 78.4531 338.445 78.0625 338.68C77.6771 338.909 77.375 339.219 77.1562 339.609C76.9375 339.995 76.8255 340.424 76.8203 340.898V342.859C76.8203 343.453 76.9297 343.966 77.1484 344.398C77.3724 344.831 77.6875 345.164 78.0938 345.398C78.5 345.633 78.9818 345.75 79.5391 345.75C79.9089 345.75 80.2474 345.698 80.5547 345.594C80.862 345.49 81.125 345.333 81.3437 345.125C81.5625 344.917 81.7292 344.661 81.8438 344.359L84.9219 344.562C84.7656 345.302 84.4453 345.948 83.9609 346.5C83.4818 347.047 82.862 347.474 82.1016 347.781C81.3464 348.083 80.474 348.234 79.4844 348.234ZM97.1484 339.422L94.1016 339.609C94.0495 339.349 93.9375 339.115 93.7656 338.906C93.5938 338.693 93.3672 338.523 93.0859 338.398C92.8099 338.268 92.4792 338.203 92.0938 338.203C91.5781 338.203 91.1432 338.312 90.7891 338.531C90.4349 338.745 90.2578 339.031 90.2578 339.391C90.2578 339.677 90.3724 339.919 90.6016 340.117C90.8307 340.315 91.224 340.474 91.7813 340.594L93.9531 341.031C95.1198 341.271 95.9896 341.656 96.5625 342.187C97.1354 342.719 97.4219 343.417 97.4219 344.281C97.4219 345.068 97.1901 345.758 96.7266 346.352C96.2682 346.945 95.638 347.409 94.8359 347.742C94.0391 348.07 93.1198 348.234 92.0781 348.234C90.4896 348.234 89.224 347.904 88.2813 347.242C87.3438 346.576 86.7943 345.669 86.6328 344.523L89.9062 344.352C90.0052 344.836 90.2448 345.206 90.625 345.461C91.0052 345.711 91.4922 345.836 92.0859 345.836C92.6693 345.836 93.138 345.724 93.4922 345.5C93.8516 345.271 94.0339 344.977 94.0391 344.617C94.0339 344.315 93.9063 344.068 93.6562 343.875C93.4063 343.677 93.0208 343.526 92.5 343.422L90.4219 343.008C89.25 342.773 88.3776 342.367 87.8047 341.789C87.237 341.211 86.9531 340.474 86.9531 339.578C86.9531 338.807 87.1615 338.143 87.5781 337.586C88 337.029 88.5911 336.599 89.3516 336.297C90.1172 335.995 91.013 335.844 92.0391 335.844C93.5547 335.844 94.7474 336.164 95.6172 336.805C96.4922 337.445 97.0026 338.318 97.1484 339.422ZM104.986 348.234C103.752 348.234 102.689 347.984 101.799 347.484C100.913 346.979 100.231 346.266 99.752 345.344C99.2728 344.417 99.0332 343.32 99.0332 342.055C99.0332 340.82 99.2728 339.737 99.752 338.805C100.231 337.872 100.906 337.146 101.775 336.625C102.65 336.104 103.676 335.844 104.854 335.844C105.645 335.844 106.382 335.971 107.064 336.227C107.752 336.477 108.351 336.854 108.861 337.359C109.377 337.865 109.778 338.5 110.064 339.266C110.351 340.026 110.494 340.917 110.494 341.937V342.852H100.361V340.789H107.361C107.361 340.31 107.257 339.885 107.049 339.516C106.84 339.146 106.551 338.857 106.182 338.648C105.817 338.435 105.393 338.328 104.908 338.328C104.403 338.328 103.955 338.445 103.564 338.68C103.179 338.909 102.877 339.219 102.658 339.609C102.439 339.995 102.327 340.424 102.322 340.898V342.859C102.322 343.453 102.432 343.966 102.65 344.398C102.874 344.831 103.189 345.164 103.596 345.398C104.002 345.633 104.484 345.75 105.041 345.75C105.411 345.75 105.749 345.698 106.057 345.594C106.364 345.49 106.627 345.333 106.846 345.125C107.064 344.917 107.231 344.661 107.346 344.359L110.424 344.562C110.268 345.302 109.947 345.948 109.463 346.5C108.984 347.047 108.364 347.474 107.604 347.781C106.848 348.083 105.976 348.234 104.986 348.234ZM119.049 336V338.5H111.822V336H119.049ZM113.463 333.125H116.791V344.312C116.791 344.62 116.838 344.859 116.932 345.031C117.025 345.198 117.156 345.315 117.322 345.383C117.494 345.451 117.692 345.484 117.916 345.484C118.072 345.484 118.229 345.471 118.385 345.445C118.541 345.414 118.661 345.391 118.744 345.375L119.268 347.852C119.101 347.904 118.867 347.964 118.564 348.031C118.262 348.104 117.895 348.148 117.463 348.164C116.661 348.195 115.958 348.089 115.354 347.844C114.755 347.599 114.288 347.219 113.955 346.703C113.622 346.187 113.458 345.536 113.463 344.75V333.125Z" fill="white"/>
<path d="M65.598 400V385.455H70.7827C71.9143 385.455 72.8518 385.661 73.5952 386.072C74.3385 386.484 74.8949 387.048 75.2642 387.763C75.6335 388.473 75.8182 389.273 75.8182 390.163C75.8182 391.058 75.6312 391.863 75.2571 392.578C74.8878 393.288 74.3291 393.852 73.581 394.268C72.8376 394.68 71.9025 394.886 70.7756 394.886H67.2102V393.026H70.5767C71.2917 393.026 71.8717 392.902 72.3168 392.656C72.7618 392.405 73.0885 392.064 73.2969 391.634C73.5052 391.203 73.6094 390.713 73.6094 390.163C73.6094 389.614 73.5052 389.126 73.2969 388.7C73.0885 388.274 72.7595 387.94 72.3097 387.699C71.8646 387.457 71.2775 387.337 70.5483 387.337H67.7926V400H65.598ZM78.8205 400V389.091H80.8731V390.824H80.9867C81.1856 390.237 81.536 389.775 82.0379 389.439C82.5445 389.098 83.1174 388.928 83.7566 388.928C83.8892 388.928 84.0454 388.932 84.2254 388.942C84.41 388.951 84.5544 388.963 84.6586 388.977V391.009C84.5734 390.985 84.4219 390.959 84.204 390.93C83.9862 390.897 83.7684 390.881 83.5506 390.881C83.0487 390.881 82.6013 390.987 82.2083 391.2C81.8201 391.409 81.5123 391.7 81.285 392.074C81.0577 392.443 80.9441 392.865 80.9441 393.338V400H78.8205ZM91.4074 400.22C90.3326 400.22 89.4069 399.991 88.6304 399.531C87.8586 399.067 87.262 398.416 86.8406 397.578C86.424 396.735 86.2156 395.748 86.2156 394.616C86.2156 393.499 86.424 392.514 86.8406 391.662C87.262 390.81 87.8491 390.144 88.602 389.666C89.3596 389.188 90.245 388.949 91.2582 388.949C91.8738 388.949 92.4704 389.051 93.048 389.254C93.6257 389.458 94.1441 389.777 94.6034 390.213C95.0627 390.649 95.4249 391.214 95.6901 391.911C95.9552 392.602 96.0878 393.442 96.0878 394.432V395.185H87.4159V393.594H94.0068C94.0068 393.035 93.8932 392.54 93.6659 392.109C93.4386 391.674 93.119 391.33 92.7071 391.08C92.2999 390.829 91.8217 390.703 91.2724 390.703C90.6759 390.703 90.155 390.85 89.7099 391.143C89.2696 391.432 88.9287 391.811 88.6872 392.28C88.4505 392.744 88.3321 393.248 88.3321 393.793V395.036C88.3321 395.765 88.4599 396.385 88.7156 396.896C88.976 397.408 89.3383 397.798 89.8023 398.068C90.2663 398.333 90.8084 398.466 91.4287 398.466C91.8312 398.466 92.1981 398.409 92.5295 398.295C92.861 398.177 93.1474 398.002 93.3889 397.77C93.6304 397.538 93.8151 397.251 93.9429 396.911L95.9528 397.273C95.7919 397.865 95.503 398.383 95.0864 398.828C94.6744 399.268 94.156 399.612 93.531 399.858C92.9107 400.099 92.2028 400.22 91.4074 400.22ZM107.219 391.754L105.294 392.095C105.213 391.849 105.086 391.615 104.91 391.392C104.74 391.17 104.508 390.987 104.214 390.845C103.921 390.703 103.554 390.632 103.114 390.632C102.512 390.632 102.01 390.767 101.608 391.037C101.205 391.302 101.004 391.645 101.004 392.067C101.004 392.431 101.139 392.725 101.409 392.947C101.679 393.17 102.115 393.352 102.716 393.494L104.449 393.892C105.453 394.124 106.201 394.482 106.693 394.964C107.186 395.447 107.432 396.075 107.432 396.847C107.432 397.5 107.242 398.082 106.864 398.594C106.49 399.1 105.966 399.498 105.294 399.787C104.626 400.076 103.852 400.22 102.972 400.22C101.75 400.22 100.753 399.96 99.9815 399.439C99.2097 398.913 98.7362 398.168 98.561 397.202L100.614 396.889C100.741 397.424 101.004 397.829 101.402 398.104C101.8 398.374 102.318 398.509 102.957 398.509C103.653 398.509 104.21 398.364 104.626 398.075C105.043 397.782 105.251 397.424 105.251 397.003C105.251 396.662 105.124 396.375 104.868 396.143C104.617 395.911 104.231 395.736 103.71 395.618L101.864 395.213C100.846 394.981 100.093 394.612 99.605 394.105C99.1221 393.598 98.8806 392.957 98.8806 392.18C98.8806 391.536 99.0605 390.973 99.4204 390.49C99.7802 390.007 100.277 389.631 100.912 389.361C101.546 389.086 102.273 388.949 103.092 388.949C104.271 388.949 105.199 389.205 105.876 389.716C106.553 390.223 107.001 390.902 107.219 391.754ZM115.068 400.22C113.994 400.22 113.068 399.991 112.291 399.531C111.52 399.067 110.923 398.416 110.502 397.578C110.085 396.735 109.877 395.748 109.877 394.616C109.877 393.499 110.085 392.514 110.502 391.662C110.923 390.81 111.51 390.144 112.263 389.666C113.021 389.188 113.906 388.949 114.919 388.949C115.535 388.949 116.131 389.051 116.709 389.254C117.287 389.458 117.805 389.777 118.264 390.213C118.724 390.649 119.086 391.214 119.351 391.911C119.616 392.602 119.749 393.442 119.749 394.432V395.185H111.077V393.594H117.668C117.668 393.035 117.554 392.54 117.327 392.109C117.1 391.674 116.78 391.33 116.368 391.08C115.961 390.829 115.483 390.703 114.933 390.703C114.337 390.703 113.816 390.85 113.371 391.143C112.931 391.432 112.59 391.811 112.348 392.28C112.111 392.744 111.993 393.248 111.993 393.793V395.036C111.993 395.765 112.121 396.385 112.377 396.896C112.637 397.408 112.999 397.798 113.463 398.068C113.927 398.333 114.469 398.466 115.09 398.466C115.492 398.466 115.859 398.409 116.19 398.295C116.522 398.177 116.808 398.002 117.05 397.77C117.291 397.538 117.476 397.251 117.604 396.911L119.614 397.273C119.453 397.865 119.164 398.383 118.747 398.828C118.335 399.268 117.817 399.612 117.192 399.858C116.572 400.099 115.864 400.22 115.068 400.22ZM127.797 389.091V390.795H121.838V389.091H127.797ZM123.436 386.477H125.56V396.797C125.56 397.209 125.622 397.519 125.745 397.727C125.868 397.931 126.026 398.071 126.221 398.146C126.419 398.217 126.635 398.253 126.867 398.253C127.037 398.253 127.186 398.241 127.314 398.217C127.442 398.194 127.542 398.175 127.613 398.161L127.996 399.915C127.873 399.962 127.698 400.009 127.471 400.057C127.243 400.109 126.959 400.137 126.618 400.142C126.06 400.152 125.539 400.052 125.056 399.844C124.573 399.635 124.182 399.313 123.884 398.878C123.586 398.442 123.436 397.895 123.436 397.237V386.477ZM142.129 385.455V400H139.928V387.656H139.842L136.362 389.929V387.827L139.992 385.455H142.129Z" fill="white"/>
<path d="M239.598 400V385.455H244.783C245.914 385.455 246.852 385.661 247.595 386.072C248.339 386.484 248.895 387.048 249.264 387.763C249.634 388.473 249.818 389.273 249.818 390.163C249.818 391.058 249.631 391.863 249.257 392.578C248.888 393.288 248.329 393.852 247.581 394.268C246.838 394.68 245.902 394.886 244.776 394.886H241.21V393.026H244.577C245.292 393.026 245.872 392.902 246.317 392.656C246.762 392.405 247.089 392.064 247.297 391.634C247.505 391.203 247.609 390.713 247.609 390.163C247.609 389.614 247.505 389.126 247.297 388.7C247.089 388.274 246.759 387.94 246.31 387.699C245.865 387.457 245.277 387.337 244.548 387.337H241.793V400H239.598ZM252.821 400V389.091H254.873V390.824H254.987C255.186 390.237 255.536 389.775 256.038 389.439C256.544 389.098 257.117 388.928 257.757 388.928C257.889 388.928 258.045 388.932 258.225 388.942C258.41 388.951 258.554 388.963 258.659 388.977V391.009C258.573 390.985 258.422 390.959 258.204 390.93C257.986 390.897 257.768 390.881 257.551 390.881C257.049 390.881 256.601 390.987 256.208 391.2C255.82 391.409 255.512 391.7 255.285 392.074C255.058 392.443 254.944 392.865 254.944 393.338V400H252.821ZM265.407 400.22C264.333 400.22 263.407 399.991 262.63 399.531C261.859 399.067 261.262 398.416 260.841 397.578C260.424 396.735 260.216 395.748 260.216 394.616C260.216 393.499 260.424 392.514 260.841 391.662C261.262 390.81 261.849 390.144 262.602 389.666C263.36 389.188 264.245 388.949 265.258 388.949C265.874 388.949 266.47 389.051 267.048 389.254C267.626 389.458 268.144 389.777 268.603 390.213C269.063 390.649 269.425 391.214 269.69 391.911C269.955 392.602 270.088 393.442 270.088 394.432V395.185H261.416V393.594H268.007C268.007 393.035 267.893 392.54 267.666 392.109C267.439 391.674 267.119 391.33 266.707 391.08C266.3 390.829 265.822 390.703 265.272 390.703C264.676 390.703 264.155 390.85 263.71 391.143C263.27 391.432 262.929 391.811 262.687 392.28C262.45 392.744 262.332 393.248 262.332 393.793V395.036C262.332 395.765 262.46 396.385 262.716 396.896C262.976 397.408 263.338 397.798 263.802 398.068C264.266 398.333 264.808 398.466 265.429 398.466C265.831 398.466 266.198 398.409 266.53 398.295C266.861 398.177 267.147 398.002 267.389 397.77C267.63 397.538 267.815 397.251 267.943 396.911L269.953 397.273C269.792 397.865 269.503 398.383 269.086 398.828C268.674 399.268 268.156 399.612 267.531 399.858C266.911 400.099 266.203 400.22 265.407 400.22ZM281.219 391.754L279.294 392.095C279.213 391.849 279.086 391.615 278.91 391.392C278.74 391.17 278.508 390.987 278.214 390.845C277.921 390.703 277.554 390.632 277.114 390.632C276.512 390.632 276.01 390.767 275.608 391.037C275.205 391.302 275.004 391.645 275.004 392.067C275.004 392.431 275.139 392.725 275.409 392.947C275.679 393.17 276.115 393.352 276.716 393.494L278.449 393.892C279.453 394.124 280.201 394.482 280.693 394.964C281.186 395.447 281.432 396.075 281.432 396.847C281.432 397.5 281.242 398.082 280.864 398.594C280.49 399.1 279.966 399.498 279.294 399.787C278.626 400.076 277.852 400.22 276.972 400.22C275.75 400.22 274.753 399.96 273.981 399.439C273.21 398.913 272.736 398.168 272.561 397.202L274.614 396.889C274.741 397.424 275.004 397.829 275.402 398.104C275.8 398.374 276.318 398.509 276.957 398.509C277.653 398.509 278.21 398.364 278.626 398.075C279.043 397.782 279.251 397.424 279.251 397.003C279.251 396.662 279.124 396.375 278.868 396.143C278.617 395.911 278.231 395.736 277.71 395.618L275.864 395.213C274.846 394.981 274.093 394.612 273.605 394.105C273.122 393.598 272.881 392.957 272.881 392.18C272.881 391.536 273.061 390.973 273.42 390.49C273.78 390.007 274.277 389.631 274.912 389.361C275.546 389.086 276.273 388.949 277.092 388.949C278.271 388.949 279.199 389.205 279.876 389.716C280.553 390.223 281.001 390.902 281.219 391.754ZM289.068 400.22C287.994 400.22 287.068 399.991 286.291 399.531C285.52 399.067 284.923 398.416 284.502 397.578C284.085 396.735 283.877 395.748 283.877 394.616C283.877 393.499 284.085 392.514 284.502 391.662C284.923 390.81 285.51 390.144 286.263 389.666C287.021 389.188 287.906 388.949 288.919 388.949C289.535 388.949 290.131 389.051 290.709 389.254C291.287 389.458 291.805 389.777 292.264 390.213C292.724 390.649 293.086 391.214 293.351 391.911C293.616 392.602 293.749 393.442 293.749 394.432V395.185H285.077V393.594H291.668C291.668 393.035 291.554 392.54 291.327 392.109C291.1 391.674 290.78 391.33 290.368 391.08C289.961 390.829 289.483 390.703 288.933 390.703C288.337 390.703 287.816 390.85 287.371 391.143C286.931 391.432 286.59 391.811 286.348 392.28C286.111 392.744 285.993 393.248 285.993 393.793V395.036C285.993 395.765 286.121 396.385 286.377 396.896C286.637 397.408 286.999 397.798 287.463 398.068C287.927 398.333 288.469 398.466 289.09 398.466C289.492 398.466 289.859 398.409 290.19 398.295C290.522 398.177 290.808 398.002 291.05 397.77C291.291 397.538 291.476 397.251 291.604 396.911L293.614 397.273C293.453 397.865 293.164 398.383 292.747 398.828C292.335 399.268 291.817 399.612 291.192 399.858C290.572 400.099 289.864 400.22 289.068 400.22ZM301.797 389.091V390.795H295.838V389.091H301.797ZM297.436 386.477H299.56V396.797C299.56 397.209 299.622 397.519 299.745 397.727C299.868 397.931 300.026 398.071 300.221 398.146C300.419 398.217 300.635 398.253 300.867 398.253C301.037 398.253 301.186 398.241 301.314 398.217C301.442 398.194 301.542 398.175 301.613 398.161L301.996 399.915C301.873 399.962 301.698 400.009 301.471 400.057C301.243 400.109 300.959 400.137 300.618 400.142C300.06 400.152 299.539 400.052 299.056 399.844C298.573 399.635 298.182 399.313 297.884 398.878C297.586 398.442 297.436 397.895 297.436 397.237V386.477ZM310.611 400V398.409L315.533 393.31C316.058 392.756 316.492 392.27 316.832 391.854C317.178 391.432 317.436 391.032 317.607 390.653C317.777 390.275 317.862 389.872 317.862 389.446C317.862 388.963 317.749 388.546 317.521 388.196C317.294 387.841 316.984 387.569 316.591 387.379C316.198 387.185 315.755 387.088 315.263 387.088C314.742 387.088 314.287 387.195 313.899 387.408C313.511 387.621 313.213 387.921 313.004 388.31C312.796 388.698 312.692 389.152 312.692 389.673H310.597C310.597 388.788 310.8 388.014 311.207 387.351C311.615 386.688 312.173 386.174 312.884 385.81C313.594 385.44 314.401 385.256 315.305 385.256C316.219 385.256 317.024 385.438 317.72 385.803C318.421 386.162 318.968 386.655 319.361 387.28C319.754 387.9 319.95 388.601 319.95 389.382C319.95 389.922 319.849 390.45 319.645 390.966C319.446 391.482 319.098 392.057 318.601 392.692C318.104 393.321 317.412 394.086 316.527 394.986L313.636 398.011V398.118H320.185V400H310.611Z" fill="white"/>
<path d="M65.598 562V547.455H70.7827C71.9143 547.455 72.8518 547.661 73.5952 548.072C74.3385 548.484 74.8949 549.048 75.2642 549.763C75.6335 550.473 75.8182 551.273 75.8182 552.163C75.8182 553.058 75.6312 553.863 75.2571 554.578C74.8878 555.288 74.3291 555.852 73.581 556.268C72.8376 556.68 71.9025 556.886 70.7756 556.886H67.2102V555.026H70.5767C71.2917 555.026 71.8717 554.902 72.3168 554.656C72.7618 554.405 73.0885 554.064 73.2969 553.634C73.5052 553.203 73.6094 552.713 73.6094 552.163C73.6094 551.614 73.5052 551.126 73.2969 550.7C73.0885 550.274 72.7595 549.94 72.3097 549.699C71.8646 549.457 71.2775 549.337 70.5483 549.337H67.7926V562H65.598ZM78.8205 562V551.091H80.8731V552.824H80.9867C81.1856 552.237 81.536 551.775 82.0379 551.439C82.5445 551.098 83.1174 550.928 83.7566 550.928C83.8892 550.928 84.0454 550.932 84.2254 550.942C84.41 550.951 84.5544 550.963 84.6586 550.977V553.009C84.5734 552.985 84.4219 552.959 84.204 552.93C83.9862 552.897 83.7684 552.881 83.5506 552.881C83.0487 552.881 82.6013 552.987 82.2083 553.2C81.8201 553.409 81.5123 553.7 81.285 554.074C81.0577 554.443 80.9441 554.865 80.9441 555.338V562H78.8205ZM91.4074 562.22C90.3326 562.22 89.4069 561.991 88.6304 561.531C87.8586 561.067 87.262 560.416 86.8406 559.578C86.424 558.735 86.2156 557.748 86.2156 556.616C86.2156 555.499 86.424 554.514 86.8406 553.662C87.262 552.81 87.8491 552.144 88.602 551.666C89.3596 551.188 90.245 550.949 91.2582 550.949C91.8738 550.949 92.4704 551.051 93.048 551.254C93.6257 551.458 94.1441 551.777 94.6034 552.213C95.0627 552.649 95.4249 553.214 95.6901 553.911C95.9552 554.602 96.0878 555.442 96.0878 556.432V557.185H87.4159V555.594H94.0068C94.0068 555.035 93.8932 554.54 93.6659 554.109C93.4386 553.674 93.119 553.33 92.7071 553.08C92.2999 552.829 91.8217 552.703 91.2724 552.703C90.6759 552.703 90.155 552.85 89.7099 553.143C89.2696 553.432 88.9287 553.811 88.6872 554.28C88.4505 554.744 88.3321 555.248 88.3321 555.793V557.036C88.3321 557.765 88.4599 558.385 88.7156 558.896C88.976 559.408 89.3383 559.798 89.8023 560.068C90.2663 560.333 90.8084 560.466 91.4287 560.466C91.8312 560.466 92.1981 560.409 92.5295 560.295C92.861 560.177 93.1474 560.002 93.3889 559.77C93.6304 559.538 93.8151 559.251 93.9429 558.911L95.9528 559.273C95.7919 559.865 95.503 560.383 95.0864 560.828C94.6744 561.268 94.156 561.612 93.531 561.858C92.9107 562.099 92.2028 562.22 91.4074 562.22ZM107.219 553.754L105.294 554.095C105.213 553.849 105.086 553.615 104.91 553.392C104.74 553.17 104.508 552.987 104.214 552.845C103.921 552.703 103.554 552.632 103.114 552.632C102.512 552.632 102.01 552.767 101.608 553.037C101.205 553.302 101.004 553.645 101.004 554.067C101.004 554.431 101.139 554.725 101.409 554.947C101.679 555.17 102.115 555.352 102.716 555.494L104.449 555.892C105.453 556.124 106.201 556.482 106.693 556.964C107.186 557.447 107.432 558.075 107.432 558.847C107.432 559.5 107.242 560.082 106.864 560.594C106.49 561.1 105.966 561.498 105.294 561.787C104.626 562.076 103.852 562.22 102.972 562.22C101.75 562.22 100.753 561.96 99.9815 561.439C99.2097 560.913 98.7362 560.168 98.561 559.202L100.614 558.889C100.741 559.424 101.004 559.829 101.402 560.104C101.8 560.374 102.318 560.509 102.957 560.509C103.653 560.509 104.21 560.364 104.626 560.075C105.043 559.782 105.251 559.424 105.251 559.003C105.251 558.662 105.124 558.375 104.868 558.143C104.617 557.911 104.231 557.736 103.71 557.618L101.864 557.213C100.846 556.981 100.093 556.612 99.605 556.105C99.1221 555.598 98.8806 554.957 98.8806 554.18C98.8806 553.536 99.0605 552.973 99.4204 552.49C99.7802 552.007 100.277 551.631 100.912 551.361C101.546 551.086 102.273 550.949 103.092 550.949C104.271 550.949 105.199 551.205 105.876 551.716C106.553 552.223 107.001 552.902 107.219 553.754ZM115.068 562.22C113.994 562.22 113.068 561.991 112.291 561.531C111.52 561.067 110.923 560.416 110.502 559.578C110.085 558.735 109.877 557.748 109.877 556.616C109.877 555.499 110.085 554.514 110.502 553.662C110.923 552.81 111.51 552.144 112.263 551.666C113.021 551.188 113.906 550.949 114.919 550.949C115.535 550.949 116.131 551.051 116.709 551.254C117.287 551.458 117.805 551.777 118.264 552.213C118.724 552.649 119.086 553.214 119.351 553.911C119.616 554.602 119.749 555.442 119.749 556.432V557.185H111.077V555.594H117.668C117.668 555.035 117.554 554.54 117.327 554.109C117.1 553.674 116.78 553.33 116.368 553.08C115.961 552.829 115.483 552.703 114.933 552.703C114.337 552.703 113.816 552.85 113.371 553.143C112.931 553.432 112.59 553.811 112.348 554.28C112.111 554.744 111.993 555.248 111.993 555.793V557.036C111.993 557.765 112.121 558.385 112.377 558.896C112.637 559.408 112.999 559.798 113.463 560.068C113.927 560.333 114.469 560.466 115.09 560.466C115.492 560.466 115.859 560.409 116.19 560.295C116.522 560.177 116.808 560.002 117.05 559.77C117.291 559.538 117.476 559.251 117.604 558.911L119.614 559.273C119.453 559.865 119.164 560.383 118.747 560.828C118.335 561.268 117.817 561.612 117.192 561.858C116.572 562.099 115.864 562.22 115.068 562.22ZM127.797 551.091V552.795H121.838V551.091H127.797ZM123.436 548.477H125.56V558.797C125.56 559.209 125.622 559.519 125.745 559.727C125.868 559.931 126.026 560.071 126.221 560.146C126.419 560.217 126.635 560.253 126.867 560.253C127.037 560.253 127.186 560.241 127.314 560.217C127.442 560.194 127.542 560.175 127.613 560.161L127.996 561.915C127.873 561.962 127.698 562.009 127.471 562.057C127.243 562.109 126.959 562.137 126.618 562.142C126.06 562.152 125.539 562.052 125.056 561.844C124.573 561.635 124.182 561.313 123.884 560.878C123.586 560.442 123.436 559.895 123.436 559.237V548.477ZM141.675 562.199C140.699 562.199 139.828 562.031 139.061 561.695C138.299 561.358 137.695 560.892 137.25 560.295C136.81 559.694 136.573 558.998 136.54 558.207H138.77C138.798 558.638 138.943 559.012 139.203 559.33C139.468 559.642 139.814 559.884 140.24 560.054C140.666 560.224 141.14 560.31 141.661 560.31C142.233 560.31 142.74 560.21 143.18 560.011C143.626 559.812 143.974 559.536 144.225 559.18C144.475 558.821 144.601 558.406 144.601 557.938C144.601 557.45 144.475 557.021 144.225 556.652C143.978 556.278 143.616 555.984 143.138 555.771C142.664 555.558 142.091 555.452 141.419 555.452H140.19V553.662H141.419C141.959 553.662 142.432 553.565 142.84 553.371C143.251 553.177 143.573 552.907 143.805 552.561C144.037 552.211 144.153 551.801 144.153 551.332C144.153 550.883 144.052 550.492 143.848 550.161C143.649 549.824 143.365 549.562 142.996 549.372C142.631 549.183 142.2 549.088 141.703 549.088C141.23 549.088 140.787 549.176 140.375 549.351C139.968 549.521 139.636 549.768 139.381 550.089C139.125 550.407 138.988 550.788 138.969 551.233H136.845C136.869 550.447 137.101 549.756 137.541 549.159C137.986 548.562 138.573 548.096 139.303 547.76C140.032 547.424 140.841 547.256 141.732 547.256C142.664 547.256 143.469 547.438 144.146 547.803C144.828 548.162 145.354 548.643 145.723 549.244C146.097 549.846 146.282 550.504 146.277 551.219C146.282 552.033 146.055 552.724 145.595 553.293C145.141 553.861 144.535 554.242 143.777 554.436V554.55C144.743 554.696 145.491 555.08 146.021 555.7C146.556 556.321 146.822 557.09 146.817 558.009C146.822 558.809 146.599 559.526 146.149 560.161C145.704 560.795 145.096 561.295 144.324 561.659C143.552 562.019 142.669 562.199 141.675 562.199Z" fill="white"/>
<path d="M239.598 562V547.455H244.783C245.914 547.455 246.852 547.661 247.595 548.072C248.339 548.484 248.895 549.048 249.264 549.763C249.634 550.473 249.818 551.273 249.818 552.163C249.818 553.058 249.631 553.863 249.257 554.578C248.888 555.288 248.329 555.852 247.581 556.268C246.838 556.68 245.902 556.886 244.776 556.886H241.21V555.026H244.577C245.292 555.026 245.872 554.902 246.317 554.656C246.762 554.405 247.089 554.064 247.297 553.634C247.505 553.203 247.609 552.713 247.609 552.163C247.609 551.614 247.505 551.126 247.297 550.7C247.089 550.274 246.759 549.94 246.31 549.699C245.865 549.457 245.277 549.337 244.548 549.337H241.793V562H239.598ZM252.821 562V551.091H254.873V552.824H254.987C255.186 552.237 255.536 551.775 256.038 551.439C256.544 551.098 257.117 550.928 257.757 550.928C257.889 550.928 258.045 550.932 258.225 550.942C258.41 550.951 258.554 550.963 258.659 550.977V553.009C258.573 552.985 258.422 552.959 258.204 552.93C257.986 552.897 257.768 552.881 257.551 552.881C257.049 552.881 256.601 552.987 256.208 553.2C255.82 553.409 255.512 553.7 255.285 554.074C255.058 554.443 254.944 554.865 254.944 555.338V562H252.821ZM265.407 562.22C264.333 562.22 263.407 561.991 262.63 561.531C261.859 561.067 261.262 560.416 260.841 559.578C260.424 558.735 260.216 557.748 260.216 556.616C260.216 555.499 260.424 554.514 260.841 553.662C261.262 552.81 261.849 552.144 262.602 551.666C263.36 551.188 264.245 550.949 265.258 550.949C265.874 550.949 266.47 551.051 267.048 551.254C267.626 551.458 268.144 551.777 268.603 552.213C269.063 552.649 269.425 553.214 269.69 553.911C269.955 554.602 270.088 555.442 270.088 556.432V557.185H261.416V555.594H268.007C268.007 555.035 267.893 554.54 267.666 554.109C267.439 553.674 267.119 553.33 266.707 553.08C266.3 552.829 265.822 552.703 265.272 552.703C264.676 552.703 264.155 552.85 263.71 553.143C263.27 553.432 262.929 553.811 262.687 554.28C262.45 554.744 262.332 555.248 262.332 555.793V557.036C262.332 557.765 262.46 558.385 262.716 558.896C262.976 559.408 263.338 559.798 263.802 560.068C264.266 560.333 264.808 560.466 265.429 560.466C265.831 560.466 266.198 560.409 266.53 560.295C266.861 560.177 267.147 560.002 267.389 559.77C267.63 559.538 267.815 559.251 267.943 558.911L269.953 559.273C269.792 559.865 269.503 560.383 269.086 560.828C268.674 561.268 268.156 561.612 267.531 561.858C266.911 562.099 266.203 562.22 265.407 562.22ZM281.219 553.754L279.294 554.095C279.213 553.849 279.086 553.615 278.91 553.392C278.74 553.17 278.508 552.987 278.214 552.845C277.921 552.703 277.554 552.632 277.114 552.632C276.512 552.632 276.01 552.767 275.608 553.037C275.205 553.302 275.004 553.645 275.004 554.067C275.004 554.431 275.139 554.725 275.409 554.947C275.679 555.17 276.115 555.352 276.716 555.494L278.449 555.892C279.453 556.124 280.201 556.482 280.693 556.964C281.186 557.447 281.432 558.075 281.432 558.847C281.432 559.5 281.242 560.082 280.864 560.594C280.49 561.1 279.966 561.498 279.294 561.787C278.626 562.076 277.852 562.22 276.972 562.22C275.75 562.22 274.753 561.96 273.981 561.439C273.21 560.913 272.736 560.168 272.561 559.202L274.614 558.889C274.741 559.424 275.004 559.829 275.402 560.104C275.8 560.374 276.318 560.509 276.957 560.509C277.653 560.509 278.21 560.364 278.626 560.075C279.043 559.782 279.251 559.424 279.251 559.003C279.251 558.662 279.124 558.375 278.868 558.143C278.617 557.911 278.231 557.736 277.71 557.618L275.864 557.213C274.846 556.981 274.093 556.612 273.605 556.105C273.122 555.598 272.881 554.957 272.881 554.18C272.881 553.536 273.061 552.973 273.42 552.49C273.78 552.007 274.277 551.631 274.912 551.361C275.546 551.086 276.273 550.949 277.092 550.949C278.271 550.949 279.199 551.205 279.876 551.716C280.553 552.223 281.001 552.902 281.219 553.754ZM289.068 562.22C287.994 562.22 287.068 561.991 286.291 561.531C285.52 561.067 284.923 560.416 284.502 559.578C284.085 558.735 283.877 557.748 283.877 556.616C283.877 555.499 284.085 554.514 284.502 553.662C284.923 552.81 285.51 552.144 286.263 551.666C287.021 551.188 287.906 550.949 288.919 550.949C289.535 550.949 290.131 551.051 290.709 551.254C291.287 551.458 291.805 551.777 292.264 552.213C292.724 552.649 293.086 553.214 293.351 553.911C293.616 554.602 293.749 555.442 293.749 556.432V557.185H285.077V555.594H291.668C291.668 555.035 291.554 554.54 291.327 554.109C291.1 553.674 290.78 553.33 290.368 553.08C289.961 552.829 289.483 552.703 288.933 552.703C288.337 552.703 287.816 552.85 287.371 553.143C286.931 553.432 286.59 553.811 286.348 554.28C286.111 554.744 285.993 555.248 285.993 555.793V557.036C285.993 557.765 286.121 558.385 286.377 558.896C286.637 559.408 286.999 559.798 287.463 560.068C287.927 560.333 288.469 560.466 289.09 560.466C289.492 560.466 289.859 560.409 290.19 560.295C290.522 560.177 290.808 560.002 291.05 559.77C291.291 559.538 291.476 559.251 291.604 558.911L293.614 559.273C293.453 559.865 293.164 560.383 292.747 560.828C292.335 561.268 291.817 561.612 291.192 561.858C290.572 562.099 289.864 562.22 289.068 562.22ZM301.797 551.091V552.795H295.838V551.091H301.797ZM297.436 548.477H299.56V558.797C299.56 559.209 299.622 559.519 299.745 559.727C299.868 559.931 300.026 560.071 300.221 560.146C300.419 560.217 300.635 560.253 300.867 560.253C301.037 560.253 301.186 560.241 301.314 560.217C301.442 560.194 301.542 560.175 301.613 560.161L301.996 561.915C301.873 561.962 301.698 562.009 301.471 562.057C301.243 562.109 300.959 562.137 300.618 562.142C300.06 562.152 299.539 562.052 299.056 561.844C298.573 561.635 298.182 561.313 297.884 560.878C297.586 560.442 297.436 559.895 297.436 559.237V548.477ZM310.305 559.159V557.384L316.591 547.455H317.99V550.068H317.102L312.607 557.185V557.298H321.222V559.159H310.305ZM317.202 562V558.619L317.216 557.81V547.455H319.297V562H317.202Z" fill="white"/>
<path fill-rule="evenodd" clip-rule="evenodd" d="M63.0022 56.4871C50.5686 63.6656 46.3086 79.5643 53.4871 91.9978C60.6656 104.431 76.5643 108.691 88.9978 101.513C101.431 94.3344 105.691 78.4357 98.5129 66.0022C91.3344 53.5686 75.4357 49.3086 63.0022 56.4871ZM65.6906 61.1436C75.5524 55.4499 88.1627 58.8288 93.8564 68.6906C96.7569 73.7145 97.303 79.4517 95.8368 84.6244C93.9119 82.3517 91.602 80.4164 89.0001 78.9139C84.8613 76.5238 80.1437 75.321 75.3658 75.4375C70.5879 75.5541 65.9346 76.9857 61.9174 79.5748C59.7488 80.9724 57.8109 82.6781 56.1594 84.6289C53.6344 75.7541 57.3363 65.967 65.6906 61.1436ZM58.6963 90.2132C64.6213 99.3731 76.7552 102.372 86.3094 96.8564C89.2345 95.1676 91.5892 92.8703 93.306 90.2167C91.537 87.4854 89.142 85.2049 86.3112 83.5701C83.0284 81.6744 79.2866 80.7204 75.497 80.8128C71.7073 80.9053 68.0165 82.0407 64.8302 84.0943C62.3671 85.6818 60.2792 87.7703 58.6963 90.2132Z" fill="url(#paint4_linear_144_940)"/>
<path d="M111.257 85.8021H108L112.962 71.1996H116.879L121.834 85.8021H118.578L114.977 74.5365H114.865L111.257 85.8021ZM111.053 80.0624H118.746V82.4724H111.053V80.0624Z" fill="white"/>
<path d="M128.315 80.7255H130.898L132.196 82.4225L133.474 83.934L135.881 87H133.045L131.389 84.9323L130.54 83.7059L128.315 80.7255ZM136.099 78.5009C136.099 80.0933 135.802 81.448 135.207 82.5651C134.618 83.6821 133.813 84.5354 132.793 85.1248C131.777 85.7094 130.636 86.0018 129.367 86.0018C128.09 86.0018 126.944 85.7071 125.928 85.1176C124.913 84.5282 124.11 83.675 123.521 82.5579C122.931 81.4409 122.636 80.0885 122.636 78.5009C122.636 76.9085 122.931 75.5538 123.521 74.4367C124.11 73.3197 124.913 72.4688 125.928 71.8841C126.944 71.2947 128.09 71 129.367 71C130.636 71 131.777 71.2947 132.793 71.8841C133.813 72.4688 134.618 73.3197 135.207 74.4367C135.802 75.5538 136.099 76.9085 136.099 78.5009ZM133.017 78.5009C133.017 77.4694 132.865 76.5995 132.561 75.8913C132.262 75.183 131.838 74.6459 131.291 74.2799C130.743 73.9138 130.102 73.7308 129.367 73.7308C128.633 73.7308 127.992 73.9138 127.444 74.2799C126.897 74.6459 126.471 75.183 126.167 75.8913C125.867 76.5995 125.718 77.4694 125.718 78.5009C125.718 79.5324 125.867 80.4023 126.167 81.1105C126.471 81.8188 126.897 82.3559 127.444 82.7219C127.992 83.0879 128.633 83.2709 129.367 83.2709C130.102 83.2709 130.743 83.0879 131.291 82.7219C131.838 82.3559 132.262 81.8188 132.561 81.1105C132.865 80.4023 133.017 79.5324 133.017 78.5009Z" fill="white"/>
<path d="M147.229 71.1996H150.268V80.6827C150.268 81.7475 150.018 82.6791 149.517 83.4777C149.021 84.2763 148.326 84.899 147.433 85.3458C146.539 85.7879 145.498 86.0089 144.309 86.0089C143.116 86.0089 142.072 85.7879 141.179 85.3458C140.285 84.899 139.59 84.2763 139.094 83.4777C138.598 82.6791 138.35 81.7475 138.35 80.6827V71.1996H141.389V80.4189C141.389 80.975 141.509 81.4694 141.747 81.902C141.991 82.3345 142.332 82.6744 142.772 82.9216C143.212 83.1687 143.724 83.2923 144.309 83.2923C144.899 83.2923 145.411 83.1687 145.846 82.9216C146.286 82.6744 146.625 82.3345 146.864 81.902C147.107 81.4694 147.229 80.975 147.229 80.4189V71.1996Z" fill="white"/>
<path d="M155.246 85.8021H151.99L156.952 71.1996H160.869L165.824 85.8021H162.567L158.966 74.5365H158.854L155.246 85.8021ZM155.043 80.0624H162.736V82.4724H155.043V80.0624Z" fill="white"/>
<path d="M167.554 85.8021V71.1996H170.593V83.2567H176.756V85.8021H167.554Z" fill="white"/>
<path d="M178.769 85.8021V71.1996H188.455V73.7451H181.808V77.2246H187.957V79.7701H181.808V83.2567H188.483V85.8021H178.769Z" fill="white"/>
<path d="M195.967 85.8021H190.871V71.1996H196.009C197.455 71.1996 198.7 71.492 199.743 72.0766C200.787 72.6566 201.589 73.4908 202.151 74.5793C202.717 75.6679 203 76.9703 203 78.4866C203 80.0077 202.717 81.3149 202.151 82.4082C201.589 83.5015 200.782 84.3405 199.729 84.9251C198.681 85.5098 197.427 85.8021 195.967 85.8021ZM193.91 83.1569H195.841C196.739 83.1569 197.495 82.9952 198.108 82.672C198.725 82.344 199.189 81.8378 199.498 81.1533C199.811 80.4641 199.968 79.5752 199.968 78.4866C199.968 77.4076 199.811 76.5258 199.498 75.8414C199.189 75.1569 198.728 74.653 198.115 74.3298C197.502 74.0065 196.746 73.8449 195.848 73.8449H193.91V83.1569Z" fill="white"/>
<path fill-rule="evenodd" clip-rule="evenodd" d="M369.5 69C370.616 68.9987 371.722 69.218 372.754 69.6452C373.785 70.0725 374.722 70.6993 375.51 71.4896C376.301 72.2781 376.928 73.215 377.355 74.2464C377.782 75.2779 378.001 76.3836 378 77.5C378.001 78.6164 377.782 79.7221 377.355 80.7536C376.928 81.785 376.301 82.7219 375.51 83.5103C374.722 84.3007 373.785 84.9275 372.754 85.3548C371.722 85.782 370.616 86.0013 369.5 86C368.384 86.0013 367.278 85.782 366.246 85.3548C365.215 84.9275 364.278 84.3007 363.49 83.5104C362.699 82.7219 362.072 81.785 361.645 80.7536C361.218 79.7221 360.999 78.6164 361 77.5C360.999 76.3836 361.218 75.2779 361.645 74.2464C362.072 73.215 362.699 72.2781 363.49 71.4896C364.278 70.6993 365.215 70.0725 366.246 69.6452C367.278 69.218 368.384 68.9987 369.5 69ZM369.5 85.2273L369.501 84.4545C370.414 84.4557 371.319 84.2764 372.162 83.927C373.006 83.5775 373.772 83.0648 374.417 82.4183L374.418 82.4168C375.065 81.772 375.578 81.0057 375.927 80.1621C376.276 79.3185 376.456 78.4141 376.455 77.501V77.499C376.456 76.5859 376.276 75.6815 375.927 74.8379C375.578 73.9943 375.065 73.228 374.418 72.5832L374.417 72.5817C373.772 71.9352 373.006 71.4225 372.162 71.073C371.319 70.7236 370.414 70.5443 369.501 70.5455H369.499C368.586 70.5443 367.682 70.7236 366.838 71.073C365.994 71.4225 365.228 71.9352 364.583 72.5817L364.582 72.5832C363.935 73.228 363.422 73.9943 363.073 74.8379C362.724 75.6815 362.544 76.5859 362.545 77.499V77.501C362.544 78.4141 362.724 79.3185 363.073 80.1621C363.422 81.0057 363.935 81.772 364.582 82.4168L364.583 82.4183C365.228 83.0648 365.994 83.5775 366.838 83.927C367.682 84.2764 368.586 84.4557 369.499 84.4545L369.5 85.2273Z" fill="white"/>
<path fill-rule="evenodd" clip-rule="evenodd" d="M368.302 72.7969C368.874 72.5802 369.503 72.5235 370.111 72.6339C370.718 72.7444 371.276 73.0171 371.714 73.4175C372.152 73.8179 372.451 74.3281 372.571 74.8835C372.692 75.4389 372.63 76.0146 372.393 76.5378C372.156 77.0609 371.755 77.5081 371.24 77.8227C370.946 78.0024 370.622 78.1343 370.283 78.2143V79.021C370.283 79.4163 369.932 79.7368 369.5 79.7368C369.068 79.7368 368.717 79.4163 368.717 79.021V77.5894C368.717 77.1941 369.068 76.8737 369.5 76.8737C369.81 76.8737 370.112 76.7897 370.37 76.6324C370.627 76.4751 370.828 76.2515 370.947 75.9899C371.065 75.7283 371.096 75.4405 371.036 75.1628C370.975 74.8851 370.826 74.63 370.607 74.4298C370.388 74.2296 370.109 74.0932 369.805 74.038C369.502 73.9828 369.187 74.0111 368.901 74.1195C368.615 74.2278 368.37 74.4113 368.198 74.6467C368.026 74.8822 367.934 75.1589 367.934 75.4421C367.934 75.8374 367.584 76.1579 367.151 76.1579C366.719 76.1579 366.368 75.8374 366.368 75.4421C366.368 74.8758 366.552 74.3222 366.896 73.8514C367.24 73.3805 367.729 73.0136 368.302 72.7969Z" fill="white"/>
<path fill-rule="evenodd" clip-rule="evenodd" d="M369.5 82.4211C369.856 82.4211 370.197 82.3268 370.449 82.159C370.701 81.9912 370.842 81.7636 370.842 81.5263C370.842 81.289 370.701 81.0614 370.449 80.8937C370.197 80.7259 369.856 80.6316 369.5 80.6316C369.144 80.6316 368.803 80.7259 368.551 80.8937C368.299 81.0614 368.158 81.289 368.158 81.5263C368.158 81.7636 368.299 81.9912 368.551 82.159C368.803 82.3268 369.144 82.4211 369.5 82.4211Z" fill="white"/>
<g filter="url(#filter0_di_144_940)">
<rect x="50" y="137" width="329" height="76" rx="16" fill="url(#paint5_linear_144_940)"/>
</g>
<path d="M71.1484 169H67.5234L73.0469 153H77.4063L82.9219 169H79.2969L75.2891 156.656H75.1641L71.1484 169ZM70.9219 162.711H79.4844V165.352H70.9219V162.711ZM92.5063 173.5V167.078H92.4047C92.2484 167.411 92.0271 167.742 91.7406 168.07C91.4594 168.393 91.0922 168.661 90.6391 168.875C90.1911 169.089 89.6443 169.195 88.9984 169.195C88.087 169.195 87.2615 168.961 86.5219 168.492C85.7875 168.018 85.2042 167.323 84.7719 166.406C84.3448 165.484 84.1313 164.354 84.1313 163.016C84.1313 161.641 84.3526 160.497 84.7953 159.586C85.238 158.669 85.8266 157.984 86.5609 157.531C87.3005 157.073 88.1104 156.844 88.9906 156.844C89.6625 156.844 90.2224 156.958 90.6703 157.188C91.1234 157.411 91.488 157.693 91.7641 158.031C92.0453 158.365 92.2589 158.693 92.4047 159.016H92.5453V157H95.8266V173.5H92.5063ZM90.0531 166.547C90.5896 166.547 91.0427 166.401 91.4125 166.109C91.7875 165.812 92.074 165.398 92.2719 164.867C92.475 164.336 92.5766 163.714 92.5766 163C92.5766 162.286 92.4776 161.667 92.2797 161.141C92.0818 160.615 91.7953 160.208 91.4203 159.922C91.0453 159.635 90.5896 159.492 90.0531 159.492C89.5063 159.492 89.0453 159.641 88.6703 159.937C88.2953 160.234 88.0115 160.646 87.8188 161.172C87.626 161.698 87.5297 162.307 87.5297 163C87.5297 163.698 87.626 164.315 87.8188 164.852C88.0167 165.383 88.3005 165.799 88.6703 166.102C89.0453 166.398 89.5063 166.547 90.0531 166.547ZM106.544 163.891V157H109.872V169H106.677V166.82H106.552C106.281 167.523 105.83 168.089 105.2 168.516C104.575 168.943 103.812 169.156 102.911 169.156C102.109 169.156 101.403 168.974 100.794 168.609C100.184 168.245 99.7078 167.727 99.3641 167.055C99.0255 166.383 98.8536 165.578 98.8484 164.641V157H102.177V164.047C102.182 164.755 102.372 165.315 102.747 165.727C103.122 166.138 103.624 166.344 104.255 166.344C104.656 166.344 105.031 166.253 105.38 166.07C105.729 165.883 106.01 165.607 106.223 165.242C106.442 164.878 106.549 164.427 106.544 163.891ZM116.306 169.227C115.54 169.227 114.858 169.094 114.259 168.828C113.66 168.557 113.186 168.159 112.837 167.633C112.493 167.102 112.321 166.44 112.321 165.648C112.321 164.982 112.444 164.422 112.689 163.969C112.933 163.516 113.267 163.151 113.689 162.875C114.111 162.599 114.59 162.391 115.126 162.25C115.668 162.109 116.236 162.01 116.829 161.953C117.527 161.88 118.09 161.812 118.517 161.75C118.944 161.682 119.254 161.583 119.446 161.453C119.639 161.323 119.736 161.13 119.736 160.875V160.828C119.736 160.333 119.579 159.951 119.267 159.68C118.96 159.409 118.522 159.273 117.954 159.273C117.355 159.273 116.879 159.406 116.525 159.672C116.17 159.932 115.936 160.26 115.821 160.656L112.743 160.406C112.9 159.677 113.207 159.047 113.665 158.516C114.124 157.979 114.715 157.568 115.439 157.281C116.168 156.99 117.012 156.844 117.97 156.844C118.637 156.844 119.275 156.922 119.884 157.078C120.499 157.234 121.043 157.477 121.517 157.805C121.996 158.133 122.374 158.555 122.65 159.07C122.926 159.581 123.064 160.193 123.064 160.906V169H119.907V167.336H119.814C119.621 167.711 119.363 168.042 119.04 168.328C118.717 168.609 118.329 168.831 117.876 168.992C117.423 169.148 116.9 169.227 116.306 169.227ZM117.259 166.93C117.749 166.93 118.181 166.833 118.556 166.641C118.931 166.443 119.225 166.177 119.439 165.844C119.652 165.51 119.759 165.133 119.759 164.711V163.438C119.655 163.505 119.512 163.568 119.329 163.625C119.152 163.677 118.952 163.727 118.728 163.773C118.504 163.815 118.28 163.854 118.056 163.891C117.832 163.922 117.629 163.951 117.446 163.977C117.056 164.034 116.715 164.125 116.423 164.25C116.131 164.375 115.905 164.544 115.743 164.758C115.582 164.966 115.501 165.227 115.501 165.539C115.501 165.992 115.665 166.339 115.993 166.578C116.327 166.812 116.749 166.93 117.259 166.93ZM125.996 169V157H129.222V159.094H129.347C129.566 158.349 129.933 157.786 130.449 157.406C130.964 157.021 131.558 156.828 132.23 156.828C132.397 156.828 132.576 156.839 132.769 156.859C132.962 156.88 133.131 156.909 133.277 156.945V159.898C133.121 159.852 132.905 159.81 132.629 159.773C132.352 159.737 132.1 159.719 131.871 159.719C131.381 159.719 130.944 159.826 130.558 160.039C130.178 160.247 129.876 160.539 129.652 160.914C129.433 161.289 129.324 161.721 129.324 162.211V169H125.996ZM135.348 169V157H138.676V169H135.348ZM137.02 155.453C136.525 155.453 136.1 155.289 135.746 154.961C135.397 154.628 135.223 154.229 135.223 153.766C135.223 153.307 135.397 152.914 135.746 152.586C136.1 152.253 136.525 152.086 137.02 152.086C137.514 152.086 137.936 152.253 138.285 152.586C138.639 152.914 138.816 153.307 138.816 153.766C138.816 154.229 138.639 154.628 138.285 154.961C137.936 155.289 137.514 155.453 137.02 155.453ZM149.387 163.891V157H152.715V169H149.52V166.82H149.395C149.124 167.523 148.674 168.089 148.043 168.516C147.418 168.943 146.655 169.156 145.754 169.156C144.952 169.156 144.246 168.974 143.637 168.609C143.028 168.245 142.551 167.727 142.207 167.055C141.869 166.383 141.697 165.578 141.692 164.641V157H145.02V164.047C145.025 164.755 145.215 165.315 145.59 165.727C145.965 166.138 146.468 166.344 147.098 166.344C147.499 166.344 147.874 166.253 148.223 166.07C148.572 165.883 148.853 165.607 149.067 165.242C149.286 164.878 149.392 164.427 149.387 163.891ZM155.727 169V157H158.899V159.117H159.04C159.29 158.414 159.707 157.859 160.29 157.453C160.873 157.047 161.571 156.844 162.384 156.844C163.207 156.844 163.907 157.049 164.485 157.461C165.063 157.867 165.449 158.419 165.641 159.117H165.766C166.011 158.43 166.454 157.88 167.095 157.469C167.74 157.052 168.503 156.844 169.384 156.844C170.503 156.844 171.412 157.201 172.11 157.914C172.813 158.622 173.165 159.628 173.165 160.93V169H169.845V161.586C169.845 160.919 169.667 160.419 169.313 160.086C168.959 159.753 168.516 159.586 167.985 159.586C167.381 159.586 166.91 159.779 166.571 160.164C166.233 160.544 166.063 161.047 166.063 161.672V169H162.837V161.516C162.837 160.927 162.667 160.458 162.329 160.109C161.996 159.76 161.555 159.586 161.009 159.586C160.639 159.586 160.305 159.68 160.009 159.867C159.717 160.049 159.485 160.307 159.313 160.641C159.141 160.969 159.055 161.354 159.055 161.797V169H155.727ZM188.515 153V169H185.132V156.211H185.039L181.375 158.508V155.508L185.336 153H188.515Z" fill="white"/>
<path d="M72.4929 187.783C72.4588 187.439 72.3125 187.172 72.054 186.982C71.7955 186.791 71.4446 186.696 71.0014 186.696C70.7003 186.696 70.446 186.739 70.2386 186.824C70.0313 186.906 69.8722 187.021 69.7614 187.169C69.6534 187.317 69.5994 187.484 69.5994 187.672C69.5938 187.828 69.6264 187.964 69.6974 188.081C69.7713 188.197 69.8722 188.298 70 188.384C70.1278 188.466 70.2756 188.538 70.4432 188.601C70.6108 188.661 70.7898 188.712 70.9801 188.754L71.7642 188.942C72.1449 189.027 72.4943 189.141 72.8125 189.283C73.1307 189.425 73.4063 189.599 73.6392 189.807C73.8722 190.014 74.0526 190.259 74.1804 190.54C74.3111 190.821 74.3778 191.143 74.3807 191.507C74.3778 192.041 74.2415 192.504 73.9716 192.896C73.7045 193.286 73.3182 193.588 72.8125 193.804C72.3097 194.017 71.7031 194.124 70.9929 194.124C70.2884 194.124 69.6747 194.016 69.152 193.8C68.6321 193.584 68.2259 193.264 67.9332 192.841C67.6435 192.415 67.4915 191.888 67.4773 191.26H69.2628C69.2827 191.553 69.3665 191.797 69.5142 191.993C69.6648 192.186 69.8651 192.332 70.1151 192.432C70.3679 192.528 70.6534 192.577 70.9716 192.577C71.2841 192.577 71.5554 192.531 71.7855 192.44C72.0185 192.349 72.1989 192.223 72.3267 192.061C72.4545 191.899 72.5185 191.713 72.5185 191.503C72.5185 191.307 72.4602 191.142 72.3438 191.009C72.2301 190.875 72.0625 190.761 71.8409 190.668C71.6222 190.574 71.3537 190.489 71.0355 190.412L70.0852 190.173C69.3494 189.994 68.7685 189.714 68.3423 189.334C67.9162 188.953 67.7045 188.44 67.7074 187.795C67.7045 187.267 67.8452 186.805 68.1293 186.411C68.4162 186.016 68.8097 185.707 69.3097 185.486C69.8097 185.264 70.3778 185.153 71.0142 185.153C71.6619 185.153 72.2273 185.264 72.7102 185.486C73.196 185.707 73.5739 186.016 73.8438 186.411C74.1136 186.805 74.2528 187.263 74.2614 187.783H72.4929ZM79.0692 187.455V188.818H75.1275V187.455H79.0692ZM76.0224 185.886H77.8377V191.989C77.8377 192.156 77.8633 192.287 77.9144 192.381C77.9656 192.472 78.0366 192.536 78.1275 192.572C78.2212 192.609 78.3292 192.628 78.4513 192.628C78.5366 192.628 78.6218 192.621 78.707 192.607C78.7923 192.589 78.8576 192.577 78.9031 192.568L79.1886 193.919C79.0977 193.947 78.9698 193.98 78.805 194.017C78.6403 194.057 78.44 194.081 78.2042 194.089C77.7667 194.107 77.3832 194.048 77.0536 193.915C76.7269 193.781 76.4727 193.574 76.2908 193.293C76.109 193.011 76.0195 192.656 76.0224 192.227V185.886ZM82.1183 194.124C81.7006 194.124 81.3285 194.051 81.0018 193.906C80.6751 193.759 80.4165 193.541 80.2262 193.254C80.0387 192.964 79.945 192.604 79.945 192.172C79.945 191.808 80.0117 191.503 80.1452 191.256C80.2788 191.009 80.4606 190.81 80.6907 190.659C80.9208 190.509 81.1822 190.395 81.4748 190.318C81.7702 190.241 82.0799 190.188 82.4038 190.156C82.7844 190.116 83.0913 190.08 83.3242 190.045C83.5572 190.009 83.7262 189.955 83.8313 189.884C83.9364 189.812 83.989 189.707 83.989 189.568V189.543C83.989 189.273 83.9038 189.064 83.7333 188.916C83.5657 188.768 83.3271 188.695 83.0174 188.695C82.6907 188.695 82.4308 188.767 82.2376 188.912C82.0444 189.054 81.9165 189.233 81.854 189.449L80.1751 189.312C80.2603 188.915 80.4279 188.571 80.6779 188.281C80.9279 187.989 81.2504 187.764 81.6452 187.608C82.043 187.449 82.5032 187.369 83.0259 187.369C83.3896 187.369 83.7376 187.412 84.07 187.497C84.4052 187.582 84.7021 187.714 84.9606 187.893C85.2219 188.072 85.4279 188.303 85.5785 188.584C85.729 188.862 85.8043 189.196 85.8043 189.585V194H84.0827V193.092H84.0316C83.9265 193.297 83.7859 193.477 83.6097 193.634C83.4336 193.787 83.2219 193.908 82.9748 193.996C82.7276 194.081 82.4421 194.124 82.1183 194.124ZM82.6381 192.871C82.9052 192.871 83.141 192.818 83.3455 192.713C83.5501 192.605 83.7106 192.46 83.8271 192.278C83.9435 192.097 84.0018 191.891 84.0018 191.661V190.966C83.945 191.003 83.8668 191.037 83.7674 191.068C83.6708 191.097 83.5614 191.124 83.4393 191.149C83.3171 191.172 83.195 191.193 83.0728 191.213C82.9506 191.23 82.8398 191.246 82.7404 191.26C82.5273 191.291 82.3413 191.341 82.1822 191.409C82.0231 191.477 81.8995 191.57 81.8114 191.686C81.7234 191.8 81.6793 191.942 81.6793 192.112C81.6793 192.359 81.7688 192.548 81.9478 192.679C82.1296 192.807 82.3597 192.871 82.6381 192.871ZM90.6942 187.455V188.818H86.7525V187.455H90.6942ZM87.6474 185.886H89.4627V191.989C89.4627 192.156 89.4883 192.287 89.5394 192.381C89.5906 192.472 89.6616 192.536 89.7525 192.572C89.8462 192.609 89.9542 192.628 90.0763 192.628C90.1616 192.628 90.2468 192.621 90.332 192.607C90.4173 192.589 90.4826 192.577 90.5281 192.568L90.8136 193.919C90.7227 193.947 90.5948 193.98 90.43 194.017C90.2653 194.057 90.065 194.081 89.8292 194.089C89.3917 194.107 89.0082 194.048 88.6786 193.915C88.3519 193.781 88.0977 193.574 87.9158 193.293C87.734 193.011 87.6445 192.656 87.6474 192.227V185.886ZM96.0742 191.213V187.455H97.8896V194H96.1467V192.811H96.0785C95.9308 193.195 95.685 193.503 95.3413 193.736C95.0004 193.969 94.5842 194.085 94.0927 194.085C93.6552 194.085 93.2702 193.986 92.9379 193.787C92.6055 193.588 92.3455 193.305 92.158 192.939C91.9734 192.572 91.8796 192.134 91.8768 191.622V187.455H93.6921V191.298C93.695 191.685 93.7987 191.99 94.0032 192.214C94.2077 192.439 94.4819 192.551 94.8256 192.551C95.0444 192.551 95.2489 192.501 95.4393 192.402C95.6296 192.3 95.783 192.149 95.8995 191.95C96.0188 191.751 96.0771 191.506 96.0742 191.213ZM104.788 189.321L103.126 189.423C103.097 189.281 103.036 189.153 102.942 189.04C102.849 188.923 102.725 188.831 102.572 188.763C102.421 188.692 102.241 188.656 102.031 188.656C101.749 188.656 101.512 188.716 101.319 188.835C101.126 188.952 101.029 189.108 101.029 189.304C101.029 189.46 101.092 189.592 101.217 189.7C101.342 189.808 101.556 189.895 101.86 189.96L103.045 190.199C103.681 190.33 104.156 190.54 104.468 190.83C104.781 191.119 104.937 191.5 104.937 191.972C104.937 192.401 104.81 192.777 104.558 193.101C104.308 193.425 103.964 193.678 103.526 193.859C103.092 194.038 102.59 194.128 102.022 194.128C101.156 194.128 100.465 193.947 99.951 193.587C99.4396 193.223 99.1399 192.729 99.0518 192.104L100.837 192.01C100.891 192.274 101.022 192.476 101.229 192.615C101.437 192.751 101.702 192.82 102.026 192.82C102.344 192.82 102.6 192.759 102.793 192.636C102.989 192.511 103.089 192.351 103.092 192.155C103.089 191.99 103.019 191.855 102.883 191.75C102.746 191.642 102.536 191.56 102.252 191.503L101.119 191.277C100.479 191.149 100.004 190.928 99.6911 190.612C99.3814 190.297 99.2266 189.895 99.2266 189.406C99.2266 188.986 99.3402 188.624 99.5675 188.32C99.7976 188.016 100.12 187.781 100.535 187.616C100.952 187.452 101.441 187.369 102.001 187.369C102.827 187.369 103.478 187.544 103.952 187.893C104.43 188.243 104.708 188.719 104.788 189.321ZM109.918 194.111C109.637 194.111 109.396 194.011 109.194 193.812C108.995 193.611 108.896 193.369 108.896 193.088C108.896 192.81 108.995 192.571 109.194 192.372C109.396 192.173 109.637 192.074 109.918 192.074C110.191 192.074 110.43 192.173 110.634 192.372C110.839 192.571 110.941 192.81 110.941 193.088C110.941 193.276 110.893 193.447 110.796 193.604C110.702 193.757 110.579 193.881 110.425 193.974C110.272 194.065 110.103 194.111 109.918 194.111ZM109.918 189.526C109.637 189.526 109.396 189.426 109.194 189.227C108.995 189.028 108.896 188.787 108.896 188.503C108.896 188.224 108.995 187.987 109.194 187.791C109.396 187.592 109.637 187.493 109.918 187.493C110.191 187.493 110.43 187.592 110.634 187.791C110.839 187.987 110.941 188.224 110.941 188.503C110.941 188.693 110.893 188.866 110.796 189.023C110.702 189.176 110.579 189.298 110.425 189.389C110.272 189.48 110.103 189.526 109.918 189.526Z" fill="white"/>
<path d="M122.564 188H121.507C121.445 187.696 121.335 187.429 121.179 187.199C121.026 186.969 120.838 186.776 120.616 186.619C120.398 186.46 120.155 186.341 119.888 186.261C119.621 186.182 119.342 186.142 119.053 186.142C118.524 186.142 118.045 186.276 117.616 186.543C117.19 186.81 116.851 187.203 116.598 187.723C116.348 188.243 116.223 188.881 116.223 189.636C116.223 190.392 116.348 191.03 116.598 191.55C116.851 192.07 117.19 192.463 117.616 192.73C118.045 192.997 118.524 193.131 119.053 193.131C119.342 193.131 119.621 193.091 119.888 193.011C120.155 192.932 120.398 192.814 120.616 192.658C120.838 192.499 121.026 192.304 121.179 192.074C121.335 191.841 121.445 191.574 121.507 191.273H122.564C122.484 191.719 122.339 192.118 122.129 192.47C121.919 192.822 121.658 193.122 121.345 193.369C121.033 193.614 120.682 193.8 120.293 193.928C119.906 194.055 119.493 194.119 119.053 194.119C118.308 194.119 117.646 193.938 117.067 193.574C116.487 193.21 116.031 192.693 115.699 192.023C115.366 191.352 115.2 190.557 115.2 189.636C115.2 188.716 115.366 187.92 115.699 187.25C116.031 186.58 116.487 186.062 117.067 185.699C117.646 185.335 118.308 185.153 119.053 185.153C119.493 185.153 119.906 185.217 120.293 185.345C120.682 185.473 121.033 185.661 121.345 185.908C121.658 186.152 121.919 186.45 122.129 186.803C122.339 187.152 122.484 187.551 122.564 188ZM126.794 194.136C126.203 194.136 125.685 193.996 125.239 193.714C124.796 193.433 124.449 193.04 124.199 192.534C123.952 192.028 123.828 191.437 123.828 190.761C123.828 190.08 123.952 189.484 124.199 188.976C124.449 188.467 124.796 188.072 125.239 187.791C125.685 187.51 126.203 187.369 126.794 187.369C127.385 187.369 127.902 187.51 128.346 187.791C128.792 188.072 129.138 188.467 129.385 188.976C129.635 189.484 129.76 190.08 129.76 190.761C129.76 191.437 129.635 192.028 129.385 192.534C129.138 193.04 128.792 193.433 128.346 193.714C127.902 193.996 127.385 194.136 126.794 194.136ZM126.794 193.233C127.243 193.233 127.613 193.118 127.902 192.888C128.192 192.658 128.407 192.355 128.546 191.98C128.685 191.605 128.755 191.199 128.755 190.761C128.755 190.324 128.685 189.916 128.546 189.538C128.407 189.161 128.192 188.855 127.902 188.622C127.613 188.389 127.243 188.273 126.794 188.273C126.346 188.273 125.976 188.389 125.686 188.622C125.397 188.855 125.182 189.161 125.043 189.538C124.904 189.916 124.834 190.324 124.834 190.761C124.834 191.199 124.904 191.605 125.043 191.98C125.182 192.355 125.397 192.658 125.686 192.888C125.976 193.118 126.346 193.233 126.794 193.233ZM132.301 190.062V194H131.295V187.455H132.267V188.477H132.352C132.506 188.145 132.739 187.878 133.051 187.676C133.364 187.472 133.767 187.369 134.261 187.369C134.705 187.369 135.092 187.46 135.425 187.642C135.757 187.821 136.016 188.094 136.2 188.46C136.385 188.824 136.477 189.284 136.477 189.841V194H135.472V189.909C135.472 189.395 135.338 188.994 135.071 188.707C134.804 188.418 134.438 188.273 133.972 188.273C133.651 188.273 133.364 188.342 133.111 188.482C132.861 188.621 132.663 188.824 132.518 189.091C132.374 189.358 132.301 189.682 132.301 190.062ZM139.321 190.062V194H138.315V187.455H139.287V188.477H139.372C139.525 188.145 139.758 187.878 140.071 187.676C140.383 187.472 140.787 187.369 141.281 187.369C141.724 187.369 142.112 187.46 142.444 187.642C142.777 187.821 143.035 188.094 143.22 188.46C143.404 188.824 143.497 189.284 143.497 189.841V194H142.491V189.909C142.491 189.395 142.358 188.994 142.091 188.707C141.824 188.418 141.457 188.273 140.991 188.273C140.67 188.273 140.383 188.342 140.13 188.482C139.88 188.621 139.683 188.824 139.538 189.091C139.393 189.358 139.321 189.682 139.321 190.062ZM148.079 194.136C147.448 194.136 146.904 193.997 146.447 193.719C145.992 193.438 145.641 193.045 145.394 192.543C145.15 192.037 145.028 191.449 145.028 190.778C145.028 190.108 145.15 189.517 145.394 189.006C145.641 188.491 145.985 188.091 146.425 187.804C146.869 187.514 147.386 187.369 147.977 187.369C148.317 187.369 148.654 187.426 148.987 187.54C149.319 187.653 149.621 187.838 149.894 188.094C150.167 188.347 150.384 188.682 150.546 189.099C150.708 189.517 150.789 190.031 150.789 190.642V191.068H145.744V190.199H149.766C149.766 189.83 149.692 189.5 149.545 189.21C149.4 188.92 149.192 188.692 148.923 188.524C148.656 188.357 148.34 188.273 147.977 188.273C147.576 188.273 147.229 188.372 146.937 188.571C146.647 188.767 146.424 189.023 146.268 189.338C146.112 189.653 146.033 189.991 146.033 190.352V190.932C146.033 191.426 146.119 191.845 146.289 192.189C146.462 192.53 146.702 192.79 147.009 192.969C147.316 193.145 147.673 193.233 148.079 193.233C148.343 193.233 148.582 193.196 148.795 193.122C149.011 193.045 149.197 192.932 149.353 192.781C149.509 192.628 149.63 192.437 149.715 192.21L150.687 192.483C150.585 192.812 150.413 193.102 150.171 193.352C149.93 193.599 149.631 193.793 149.276 193.932C148.921 194.068 148.522 194.136 148.079 194.136ZM154.978 194.136C154.364 194.136 153.836 193.991 153.393 193.702C152.95 193.412 152.609 193.013 152.37 192.504C152.131 191.996 152.012 191.415 152.012 190.761C152.012 190.097 152.134 189.51 152.379 189.001C152.626 188.49 152.969 188.091 153.41 187.804C153.853 187.514 154.37 187.369 154.961 187.369C155.421 187.369 155.836 187.455 156.205 187.625C156.575 187.795 156.877 188.034 157.113 188.341C157.349 188.648 157.495 189.006 157.552 189.415H156.546C156.469 189.116 156.299 188.852 156.035 188.622C155.773 188.389 155.421 188.273 154.978 188.273C154.586 188.273 154.242 188.375 153.947 188.58C153.654 188.781 153.425 189.067 153.261 189.436C153.099 189.803 153.018 190.233 153.018 190.727C153.018 191.233 153.097 191.673 153.256 192.048C153.418 192.423 153.646 192.714 153.938 192.922C154.234 193.129 154.58 193.233 154.978 193.233C155.239 193.233 155.477 193.188 155.69 193.097C155.903 193.006 156.083 192.875 156.231 192.705C156.379 192.534 156.484 192.33 156.546 192.091H157.552C157.495 192.477 157.354 192.825 157.13 193.135C156.908 193.442 156.614 193.686 156.248 193.868C155.884 194.047 155.461 194.136 154.978 194.136ZM161.869 187.455V188.307H158.477V187.455H161.869ZM159.465 185.886H160.471V192.125C160.471 192.409 160.512 192.622 160.594 192.764C160.68 192.903 160.788 192.997 160.918 193.045C161.052 193.091 161.192 193.114 161.34 193.114C161.451 193.114 161.542 193.108 161.613 193.097C161.684 193.082 161.741 193.071 161.783 193.062L161.988 193.966C161.92 193.991 161.825 194.017 161.702 194.043C161.58 194.071 161.425 194.085 161.238 194.085C160.954 194.085 160.675 194.024 160.403 193.902C160.133 193.78 159.908 193.594 159.729 193.344C159.553 193.094 159.465 192.778 159.465 192.398V185.886ZM166.055 194.136C165.425 194.136 164.881 193.997 164.423 193.719C163.969 193.438 163.618 193.045 163.371 192.543C163.126 192.037 163.004 191.449 163.004 190.778C163.004 190.108 163.126 189.517 163.371 189.006C163.618 188.491 163.962 188.091 164.402 187.804C164.845 187.514 165.362 187.369 165.953 187.369C166.294 187.369 166.631 187.426 166.963 187.54C167.295 187.653 167.598 187.838 167.871 188.094C168.143 188.347 168.361 188.682 168.523 189.099C168.685 189.517 168.766 190.031 168.766 190.642V191.068H163.72V190.199H167.743C167.743 189.83 167.669 189.5 167.521 189.21C167.376 188.92 167.169 188.692 166.899 188.524C166.632 188.357 166.317 188.273 165.953 188.273C165.553 188.273 165.206 188.372 164.913 188.571C164.624 188.767 164.401 189.023 164.244 189.338C164.088 189.653 164.01 189.991 164.01 190.352V190.932C164.01 191.426 164.095 191.845 164.266 192.189C164.439 192.53 164.679 192.79 164.986 192.969C165.293 193.145 165.649 193.233 166.055 193.233C166.32 193.233 166.558 193.196 166.771 193.122C166.987 193.045 167.173 192.932 167.33 192.781C167.486 192.628 167.607 192.437 167.692 192.21L168.663 192.483C168.561 192.812 168.389 193.102 168.148 193.352C167.906 193.599 167.608 193.793 167.253 193.932C166.898 194.068 166.499 194.136 166.055 194.136ZM172.767 194.136C172.222 194.136 171.74 193.999 171.322 193.723C170.905 193.445 170.578 193.053 170.342 192.547C170.107 192.038 169.989 191.438 169.989 190.744C169.989 190.057 170.107 189.46 170.342 188.955C170.578 188.449 170.906 188.058 171.327 187.783C171.747 187.507 172.233 187.369 172.784 187.369C173.21 187.369 173.547 187.44 173.794 187.582C174.044 187.722 174.234 187.881 174.365 188.06C174.499 188.236 174.602 188.381 174.676 188.494H174.761V185.273H175.767V194H174.795V192.994H174.676C174.602 193.114 174.497 193.264 174.361 193.446C174.224 193.625 174.03 193.786 173.777 193.928C173.524 194.067 173.188 194.136 172.767 194.136ZM172.903 193.233C173.307 193.233 173.648 193.128 173.926 192.918C174.205 192.705 174.416 192.411 174.561 192.036C174.706 191.658 174.778 191.222 174.778 190.727C174.778 190.239 174.707 189.811 174.565 189.445C174.423 189.075 174.213 188.788 173.935 188.584C173.656 188.376 173.313 188.273 172.903 188.273C172.477 188.273 172.122 188.382 171.838 188.601C171.557 188.817 171.345 189.111 171.203 189.483C171.064 189.852 170.994 190.267 170.994 190.727C170.994 191.193 171.065 191.616 171.207 191.997C171.352 192.375 171.565 192.676 171.847 192.901C172.131 193.122 172.483 193.233 172.903 193.233Z" fill="#EBEBF5"/>
<circle cx="187.5" cy="190.5" r="5.5" fill="#22B890"/>
<defs>
<filter id="filter0_di_144_940" x="49" y="137" width="331" height="78" filterUnits="userSpaceOnUse" color-interpolation-filters="sRGB">
<feFlood flood-opacity="0" result="BackgroundImageFix"/>
<feColorMatrix in="SourceAlpha" type="matrix" values="0 0 0 0 0 0 0 0 0 0 0 0 0 0 0 0 0 0 127 0" result="hardAlpha"/>
<feOffset dy="1"/>
<feGaussianBlur stdDeviation="0.5"/>
<feComposite in2="hardAlpha" operator="out"/>
<feColorMatrix type="matrix" values="0 0 0 0 0.556863 0 0 0 0 0.607843 0 0 0 0 0.682353 0 0 0 0.2 0"/>
<feBlend mode="normal" in2="BackgroundImageFix" result="effect1_dropShadow_144_940"/>
<feBlend mode="normal" in="SourceGraphic" in2="effect1_dropShadow_144_940" result="shape"/>
<feColorMatrix in="SourceAlpha" type="matrix" values="0 0 0 0 0 0 0 0 0 0 0 0 0 0 0 0 0 0 127 0" result="hardAlpha"/>
<feOffset dx="0.5" dy="0.5"/>
<feGaussianBlur stdDeviation="0.25"/>
<feComposite in2="hardAlpha" operator="arithmetic" k2="-1" k3="1"/>
<feColorMatrix type="matrix" values="0 0 0 0 1 0 0 0 0 1 0 0 0 0 1 0 0 0 0.3 0"/>
<feBlend mode="normal" in2="shape" result="effect2_innerShadow_144_940"/>
</filter>
<linearGradient id="paint0_linear_144_940" x1="-26" y1="256" x2="127" y2="504" gradientUnits="userSpaceOnUse">
<stop stop-color="#ED1CFF"/>
<stop offset="1" stop-color="#FA7171"/>
</linearGradient>
<linearGradient id="paint1_linear_144_940" x1="238.511" y1="329.594" x2="486.437" y2="473.747" gradientUnits="userSpaceOnUse">
<stop stop-color="#E1875E"/>
<stop offset="1" stop-color="#F25656"/>
</linearGradient>
<linearGradient id="paint2_linear_144_940" x1="46" y1="492.5" x2="127" y2="660" gradientUnits="userSpaceOnUse">
<stop stop-color="#60E25D"/>
<stop offset="1" stop-color="#E9EC58"/>
</linearGradient>
<linearGradient id="paint3_linear_144_940" x1="220" y1="492.5" x2="301" y2="660" gradientUnits="userSpaceOnUse">
<stop stop-color="#5DD2E2"/>
<stop offset="1" stop-color="#589CEC"/>
</linearGradient>
<linearGradient id="paint4_linear_144_940" x1="76" y1="53" x2="76" y2="105" gradientUnits="userSpaceOnUse">
<stop stop-color="#ED1CFF"/>
<stop offset="1" stop-color="#FA7171"/>
</linearGradient>
<linearGradient id="paint5_linear_144_940" x1="81" y1="117.642" x2="196.029" y2="378.968" gradientUnits="userSpaceOnUse">
<stop stop-color="#E1875E"/>
<stop offset="1" stop-color="#F25656"/>
</linearGradient>
<clipPath id="clip0_144_940">
<rect width="25" height="16" fill="white" transform="translate(388 15)"/>
</clipPath>
</defs>
</svg>
